<svg id="visual" viewBox="0 0 900 600" width="900" height="600" xmlns="http://www.w3.org/2000/svg" xmlns:xlink="http://www.w3.org/1999/xlink" version="1.1"><rect x="0" y="0" width="900" height="600" fill="#FBF9F9"></rect><path d="M0 393L21.5 395C43 397 86 401 128.8 392.8C171.7 384.7 214.3 364.3 257.2 350C300 335.7 343 327.3 385.8 337.3C428.7 347.3 471.3 375.7 514.2 384.5C557 393.3 600 382.7 642.8 374.3C685.7 366 728.3 360 771.2 365.2C814 370.3 857 386.7 878.5 394.8L900 403L900 601L878.5 601C857 601 814 601 771.2 601C728.3 601 685.7 601 642.8 601C600 601 557 601 514.2 601C471.3 601 428.7 601 385.8 601C343 601 300 601 257.2 601C214.3 601 171.7 601 128.8 601C86 601 43 601 21.5 601L0 601Z" fill="#027902"></path><path d="M0 421L21.5 421.2C43 421.3 86 421.7 128.8 425.2C171.7 428.7 214.3 435.3 257.2 426.7C300 418 343 394 385.8 388.8C428.7 383.7 471.3 397.3 514.2 401.2C557 405 600 399 642.8 400.7C685.7 402.3 728.3 411.7 771.2 420.8C814 430 857 439 878.5 443.5L900 448L900 601L878.5 601C857 601 814 601 771.2 601C728.3 601 685.7 601 642.8 601C600 601 557 601 514.2 601C471.3 601 428.7 601 385.8 601C343 601 300 601 257.2 601C214.3 601 171.7 601 128.8 601C86 601 43 601 21.5 601L0 601Z" fill="#129b19"></path><path d="M0 501L21.5 501.5C43 502 86 503 128.8 498.2C171.7 493.3 214.3 482.7 257.2 479.8C300 477 343 482 385.8 477.2C428.7 472.3 471.3 457.7 514.2 459.3C557 461 600 479 642.8 488.2C685.7 497.3 728.3 497.7 771.2 496.5C814 495.3 857 492.7 878.5 491.3L900 490L900 601L878.5 601C857 601 814 601 771.2 601C728.3 601 685.7 601 642.8 601C600 601 557 601 514.2 601C471.3 601 428.7 601 385.8 601C343 601 300 601 257.2 601C214.3 601 171.7 601 128.8 601C86 601 43 601 21.5 601L0 601Z" fill="#1dbe2e"></path><path d="M0 521L21.5 523.3C43 525.7 86 530.3 128.8 535.8C171.7 541.3 214.3 547.7 257.2 550.2C300 552.7 343 551.3 385.8 543.5C428.7 535.7 471.3 521.3 514.2 522C557 522.7 600 538.3 642.8 546.3C685.7 554.3 728.3 554.7 771.2 550C814 545.3 857 535.7 878.5 530.8L900 526L900 601L878.5 601C857 601 814 601 771.2 601C728.3 601 685.7 601 642.8 601C600 601 557 601 514.2 601C471.3 601 428.7 601 385.8 601C343 601 300 601 257.2 601C214.3 601 171.7 601 128.8 601C86 601 43 601 21.5 601L0 601Z" fill="#25e243"></path></svg>